<mxfile host="app.diagrams.net" modified="2022-06-13T17:35:06.895Z" agent="5.0 (Windows NT 10.0; Win64; x64) AppleWebKit/537.36 (KHTML, like Gecko) Chrome/102.0.0.0 Safari/537.36" etag="feKFQYXTRAlGxeKOQ8mq" version="19.0.3" type="github">
  <diagram id="vJvLmU9q1-TFhlSP8GOK" name="Page-1">
    <mxGraphModel dx="1422" dy="786" grid="1" gridSize="10" guides="1" tooltips="1" connect="1" arrows="1" fold="1" page="1" pageScale="1" pageWidth="827" pageHeight="1169" math="0" shadow="0">
      <root>
        <mxCell id="0" />
        <mxCell id="1" parent="0" />
        <mxCell id="_D8urHrcq89fjGaqm43e-1" value="" style="rounded=0;whiteSpace=wrap;html=1;fillColor=#f5f5f5;fontColor=#333333;strokeColor=#666666;" parent="1" vertex="1">
          <mxGeometry x="10" y="110" width="810" height="570" as="geometry" />
        </mxCell>
        <mxCell id="_D8urHrcq89fjGaqm43e-2" value="Regiao Brazil" style="rounded=1;whiteSpace=wrap;html=1;verticalAlign=top;align=center;fillColor=#dae8fc;strokeColor=#6c8ebf;fontStyle=1" parent="1" vertex="1">
          <mxGeometry x="60" y="195" width="390" height="325" as="geometry" />
        </mxCell>
        <mxCell id="_D8urHrcq89fjGaqm43e-9" value="subnet-vms" style="rounded=1;whiteSpace=wrap;html=1;verticalAlign=top;fontStyle=1;fillColor=#ffe6cc;strokeColor=#d79b00;" parent="1" vertex="1">
          <mxGeometry x="80" y="250" width="150" height="250" as="geometry" />
        </mxCell>
        <mxCell id="_D8urHrcq89fjGaqm43e-7" value="Backup Center" style="rounded=1;whiteSpace=wrap;html=1;verticalAlign=top;fontStyle=1;fillColor=#ffe6cc;strokeColor=#d79b00;" parent="1" vertex="1">
          <mxGeometry x="280" y="250" width="147.5" height="250" as="geometry" />
        </mxCell>
        <mxCell id="_D8urHrcq89fjGaqm43e-3" value="vm01" style="sketch=0;aspect=fixed;html=1;points=[];align=center;image;fontSize=12;image=img/lib/mscae/Virtual_Machine_2.svg;" parent="1" vertex="1">
          <mxGeometry x="130" y="282" width="50" height="46" as="geometry" />
        </mxCell>
        <mxCell id="_D8urHrcq89fjGaqm43e-4" value="vm02" style="sketch=0;aspect=fixed;html=1;points=[];align=center;image;fontSize=12;image=img/lib/mscae/Virtual_Machine_2.svg;" parent="1" vertex="1">
          <mxGeometry x="130" y="351" width="50" height="46" as="geometry" />
        </mxCell>
        <mxCell id="_D8urHrcq89fjGaqm43e-5" value="vm03" style="sketch=0;aspect=fixed;html=1;points=[];align=center;image;fontSize=12;image=img/lib/mscae/Virtual_Machine_2.svg;" parent="1" vertex="1">
          <mxGeometry x="130" y="422" width="50" height="46" as="geometry" />
        </mxCell>
        <mxCell id="_D8urHrcq89fjGaqm43e-6" value="Backup Vault" style="outlineConnect=0;dashed=0;verticalLabelPosition=bottom;verticalAlign=top;align=center;html=1;shape=mxgraph.aws3.tape_storage;fillColor=#7D7C7C;gradientColor=none;" parent="1" vertex="1">
          <mxGeometry x="316.25" y="408.5" width="75" height="39" as="geometry" />
        </mxCell>
        <mxCell id="P5NrASFcuBQIqKETf10I-1" value="Backup Vault" style="outlineConnect=0;dashed=0;verticalLabelPosition=bottom;verticalAlign=top;align=center;html=1;shape=mxgraph.aws3.tape_storage;fillColor=#7D7C7C;gradientColor=none;" vertex="1" parent="1">
          <mxGeometry x="316.25" y="300.5" width="75" height="39" as="geometry" />
        </mxCell>
      </root>
    </mxGraphModel>
  </diagram>
</mxfile>
